<svg width="80" height="80" viewBox="0 0 80 80" fill="none" xmlns="http://www.w3.org/2000/svg">
<path fill-rule="evenodd" clip-rule="evenodd" d="M41.7462 62.92L41.7462 65.8603L38.1301 65.8603L38.1301 62.92L21.6724 62.92L35.1887 43.7543L12.8522 51.385L18.1579 34.7117L11.6745 32.5033L21.0106 25.7472L24.3935 15.1164L28.2202 20.5299L39.9351 12.0523L51.6179 20.4584L55.4517 15.0223L58.8647 25.6726L68.2824 32.4489L61.7512 34.6801L67.1042 51.3841L44.6151 43.7238L58.1843 62.92L41.7462 62.92ZM41.7462 59.3039L51.2 59.3039L41.7462 45.9296L41.7462 59.3039ZM45.5391 40.2184L58.3287 35.8493L61.4675 45.6441L45.5391 40.2184ZM55.785 27.9115L57.225 32.4051L44.5682 36.7289L52.4691 25.5257L55.785 27.9115ZM49.5338 23.4136L41.7462 17.8103L41.7462 34.4562L49.5338 23.4136ZM38.1301 34.5494L38.1301 17.8221L30.3076 23.4829L38.1301 34.5494ZM24.0953 27.9785L27.3779 25.603L35.2259 36.7055L22.6783 32.4314L24.0953 27.9785ZM21.5815 35.8779L18.474 45.6432L34.3389 40.2234L21.5815 35.8779ZM38.1301 45.8578L28.6474 59.3039L38.1301 59.3039L38.1301 45.8578Z" fill="black"/>
<path fill-rule="evenodd" clip-rule="evenodd" d="M40 3.61605C19.9057 3.61605 3.61605 19.9057 3.61605 40C3.61605 60.0943 19.9057 76.3839 40 76.3839C60.0943 76.3839 76.3839 60.0943 76.3839 40C76.3839 19.9057 60.0943 3.61605 40 3.61605ZM0 40C0 17.9086 17.9086 0 40 0C62.0914 0 80 17.9086 80 40C80 62.0914 62.0914 80 40 80C17.9086 80 0 62.0914 0 40Z" fill="black"/>
</svg>
